# xmcd
#
# Track frame offsets:
#	150
#	20330
#	37092
#	54427
#	72742
#	90622
#	110485
#	126250
#	142147
#	161182
#	178667
#	195147
#	212810
#	231622
#	249807
#
# Disc length: 3529 seconds
#
# Revision: 0
# Processed by: cddbd v1.5.2PL0 Copyright (c) Steve Scherf et al.
# Submitted via: audiograbber 1.83.01
#
DISCID=de0dc70f
DTITLE=Sound Choice - Country Hits - Vol. 85 SC8382
DYEAR=1900
DGENRE=Karaoke
TTITLE0=George Strait - Carrying Your Love With Me
TTITLE1=River Road - I Broke It, I'll Fix It
TTITLE2=David Kersh - Day In, Day Out
TTITLE3=Burnin' Daylight - Say Yes
TTITLE4=Tim McGraw and Faith Hill - It's Your Love
TTITLE5=Lonestar - Come Cryin' To Me
TTITLE6=Ricochet - He Left A Lot To Be Desired
TTITLE7=Tracy Byrd - Don't Love Make A Diamond Shine
TTITLE8=Lila McCann - Down Came A Blackbird
TTITLE9=Kenny Chesney - She's Got It All
TTITLE10=Sherrie Austin - Lucky In Love
TTITLE11=Neal McCoy - The Shake
TTITLE12=Ty Herndon - Loved Too Much
TTITLE13=Big House - You Ain't Lonely Yet
TTITLE14=Michael Peterson - Drink, Swear, Steal, And Lie
EXTD=
EXTT0=
EXTT1=
EXTT2=
EXTT3=
EXTT4=
EXTT5=
EXTT6=
EXTT7=
EXTT8=
EXTT9=
EXTT10=
EXTT11=
EXTT12=
EXTT13=
EXTT14=
PLAYORDER=
